PathFileType	4	(X/Y/Z)	c:/Users/goper/Files/vsCode/490R/osim_files/A02/A02_Slow_05.trc
DataRate	CameraRate	NumFrames	NumMarkers	Units                	OrigDataRate	OrigDataStartFrame	OrigNumFrames
250.00	250.00	5	36	mm	250.0	1827	2435
                Frame#	Time	Mobility_markerset:LPSIS			Mobility_markerset:LASIS			Mobility_markerset:LTH1			Mobility_markerset:LTH2			Mobility_markerset:LTH3			Mobility_markerset:LTH4			Mobility_markerset:LLFE			Mobility_markerset:LMFE			Mobility_markerset:LSH1			Mobility_markerset:LSH2			Mobility_markerset:LSH3			Mobility_markerset:LSH4			Mobility_markerset:LLMAL			Mobility_markerset:LMMAL			Mobility_markerset:LCAL			Mobility_markerset:LMTP5			Mobility_markerset:LTOE			Mobility_markerset:LMTP1			Mobility_markerset:RPSIS			Mobility_markerset:RASIS			Mobility_markerset:RTH1			Mobility_markerset:RTH2			Mobility_markerset:RTH3			Mobility_markerset:RTH4			Mobility_markerset:RLFE			Mobility_markerset:RMFE			Mobility_markerset:RSH1			Mobility_markerset:RSH2			Mobility_markerset:RSH3			Mobility_markerset:RSH4			Mobility_markerset:RLMAL			Mobility_markerset:RMMAL			Mobility_markerset:RCAL			Mobility_markerset:RMTP1			Mobility_markerset:RTOE			Mobility_markerset:RMTP5		
		X1	Y1	Z1	X2	Y2	Z2	X3	Y3	Z3	X4	Y4	Z4	X5	Y5	Z5	X6	Y6	Z6	X7	Y7	Z7	X8	Y8	Z8	X9	Y9	Z9	X10	Y10	Z10	X11	Y11	Z11	X12	Y12	Z12	X13	Y13	Z13	X14	Y14	Z14	X15	Y15	Z15	X16	Y16	Z16	X17	Y17	Z17	X18	Y18	Z18	X19	Y19	Z19	X20	Y20	Z20	X21	Y21	Z21	X22	Y22	Z22	X23	Y23	Z23	X24	Y24	Z24	X25	Y25	Z25	X26	Y26	Z26	X27	Y27	Z27	X28	Y28	Z28	X29	Y29	Z29	X30	Y30	Z30	X31	Y31	Z31	X32	Y32	Z32	X33	Y33	Z33	X34	Y34	Z34	X35	Y35	Z35	X36	Y36	Z36

1827	7.30400	-2526.66113	942.41455	343.54535	-2678.90259	916.68964	419.54587	-2693.31763	675.09509	460.49081	-2710.38452	634.61670	451.01257	-2639.86206	653.46045	438.73792	-2663.15088	612.68427	435.14478	-2762.99365	467.99658	405.80225	-2796.04272	457.90567	291.43414	-2694.64624	394.54694	394.15817	-2688.63110	349.54785	396.96982	-2753.20215	383.18680	405.56503	-2740.28882	339.95148	408.23111	-2696.48291	99.48090	354.79260	-2713.56421	110.80796	273.68695	0.00000	0.00000	0.00000	-2787.68457	48.21859	371.50131	-2842.37305	69.35023	310.65231	-2809.43311	43.86591	262.15244	-2532.00122	961.11261	243.33734	-2693.18945	948.24536	178.70581	-2638.55103	626.49042	131.86792	-2639.58032	581.84369	132.25348	-2700.77710	619.53235	139.64972	-2690.99219	577.35699	136.54770	-2638.27222	469.87836	121.36679	-2643.86694	465.80734	255.97804	-2499.58032	346.92480	137.63397	-2469.96655	311.10251	147.86313	-2542.84106	305.41208	139.94821	-2507.46997	274.34637	145.99413	-2356.98608	194.52299	144.24165	-2361.17896	192.82147	229.39114	-2302.23926	216.35580	183.65149	-2428.64526	82.30795	233.49147	-2455.38257	75.71342	201.22192	-2429.23438	83.06374	141.38509
1828	7.30800	-2530.98267	943.74548	344.33621	-2682.84961	917.82507	419.66620	-2695.96729	675.72510	460.44345	-2712.66577	635.03033	451.00159	0.00000	0.00000	0.00000	-2665.19556	613.58954	435.30096	-2763.75830	468.09265	405.68564	-2796.75513	457.82910	291.31253	-2695.32471	394.91452	394.14752	-2689.24878	349.72186	397.06137	-2753.57178	383.30887	405.46274	-2740.48877	340.05972	408.07812	-2696.54346	99.51674	354.90457	-2713.68530	110.97087	273.76196	0.00000	0.00000	0.00000	-2787.70483	48.18910	371.49866	-2842.38745	69.35197	310.62158	-2809.42676	43.88314	262.16522	-2535.33813	962.66254	243.69804	-2696.92505	949.63116	178.85030	-2643.87109	628.65552	131.79802	-2645.06689	583.75293	132.21790	-2706.01050	621.65186	139.87479	-2696.57910	579.45813	136.71394	-2644.58398	471.69278	121.54021	-2650.09985	467.31708	256.92276	-2506.71826	346.12259	138.43764	-2478.15967	310.68301	147.84160	-2551.18555	306.01453	139.93524	-2516.04443	274.51251	146.03854	-2365.66016	192.71608	144.73586	-2370.78467	191.08072	229.25500	-2311.71118	214.00102	183.24846	-2439.46680	81.52311	233.46748	-2466.40576	75.22298	201.30287	-2440.24927	82.21619	141.34062
1829	7.31200	-2534.86377	945.08008	344.75305	-2686.59766	918.87433	419.73529	-2698.53320	676.43292	460.62689	-2714.71704	635.44995	450.91342	-2644.40723	655.45068	438.61694	-2667.04297	614.25763	435.16263	-2764.50879	468.22098	405.58044	-2797.37109	457.76547	291.15997	-2695.76660	395.12738	394.06140	-2689.52197	350.11765	396.67529	-2753.85132	383.38654	405.34744	-2741.20728	340.48181	408.27509	-2696.62817	99.55273	354.99905	-2713.80762	111.11741	273.79651	0.00000	0.00000	0.00000	-2787.69019	48.15411	371.50735	-2842.50244	69.21603	310.70905	-2809.44458	43.91330	262.18542	-2539.28638	964.28906	244.10168	-2700.66162	951.18158	179.00069	-2649.55078	629.98529	132.13075	-2650.58228	585.41565	132.36034	-2711.31177	623.76093	140.10097	-2702.15405	581.56317	136.91351	-2650.73877	473.37958	121.62713	-2658.38843	470.38724	256.56589	-2515.32861	347.08237	137.40404	-2486.45386	310.23975	147.76219	-2559.48999	306.53586	139.97757	-2524.83984	274.58932	146.07950	0.00000	0.00000	0.00000	-2379.99927	188.98460	228.49919	-2321.08105	211.42905	182.85277	-2450.56226	80.71823	233.46324	-2477.68237	74.77748	201.35464	-2451.55371	81.40048	141.24843
1830	7.31600	-2538.77954	946.34808	345.16040	-2690.52637	919.97174	419.85001	-2700.75342	676.65295	460.47632	-2716.70947	635.79974	450.84479	-2646.62183	656.53455	438.63455	-2668.95752	614.98669	434.95322	-2765.04004	468.26852	405.32855	-2798.05518	457.82303	291.02359	-2695.99683	395.18304	393.76166	-2689.94385	350.35999	396.61334	-2754.25024	383.52655	405.19684	-2741.54688	340.66785	408.15247	-2696.70508	99.61076	355.10120	-2713.27124	111.18455	274.32486	0.00000	0.00000	0.00000	-2787.70117	48.12934	371.53174	-2842.48315	69.11694	310.72855	-2809.48535	43.93502	262.18625	-2542.79077	965.53052	244.52150	-2704.34985	952.67169	179.18002	-2654.52319	632.10248	131.62582	-2656.07300	587.25330	132.38184	-2716.46191	625.88593	140.20155	-2707.68018	583.62598	137.01865	-2656.92310	475.16885	121.76917	0.00000	0.00000	0.00000	-2523.19458	347.01489	137.34038	-2494.71729	309.71741	147.77879	-2567.89575	307.13089	140.11519	-2533.59399	274.68188	146.03636	0.00000	0.00000	0.00000	-2389.80005	187.25627	228.14128	-2330.71802	208.63461	182.54997	-2461.97510	79.91342	233.46538	-2488.98145	74.10863	201.43913	-2463.08521	80.47952	141.33028
1831	7.32000	-2542.23486	947.78979	345.28091	-2694.21606	921.03345	419.88956	-2703.42847	677.51245	460.53970	-2718.77148	636.28259	450.78052	-2648.87915	657.41315	438.56937	-2670.82886	615.71619	434.90829	-2765.65015	468.41537	405.23608	-2798.41626	457.66949	290.80698	-2696.34937	395.42984	393.59265	-2690.43652	350.60168	396.72806	-2754.73364	383.75995	405.10867	-2741.78223	340.79004	408.05878	-2696.79688	99.68600	355.15106	-2713.40503	111.31638	274.37262	0.00000	0.00000	0.00000	-2787.74341	48.10675	371.51035	-2842.58911	69.10408	310.76230	-2809.42749	43.91403	262.20544	-2546.32031	967.21326	244.74086	-2707.96948	954.15204	179.29298	-2659.44946	634.27185	131.31828	-2661.14600	589.34778	131.81186	-2721.56519	627.95831	140.32854	-2713.00146	585.57794	137.14345	-2662.92627	476.91345	121.90707	-2669.98096	474.17700	256.77301	-2530.28662	345.79407	138.34587	-2503.16064	309.25113	147.54814	-2576.00439	307.64978	139.99146	-2542.50513	274.66711	146.11107	0.00000	0.00000	0.00000	-2399.66870	185.24258	227.95750	-2340.45288	205.78082	182.27237	-2473.40601	78.96085	233.49103	-2500.69897	73.55705	201.46228	-2474.80176	79.58513	141.34648
